Coordinates
version=1
nRows=28
nColumns=33
inDegrees=yes

Units are S.I. units (second, meters, Newtons, ...)
Angles are in degrees.

endheader
time	ground_thorax_rot_x	ground_thorax_rot_y	ground_thorax_rot_z	ground_thorax_tx	ground_thorax_ty	ground_thorax_tz	clav_prot_r	clav_elev_r	scapula_abduction_r	scapula_elevation_r	scapula_upward_rot_r	scapula_winging_r	shoulder_elv_r	plane_of_elev_r	axial_rot_r	elbow_flexion_r	pro_sup_r	wrist_flex_r	wrist_dev_r	clav_prot_l	clav_elev_l	scapula_abduction_l	scapula_elevation_l	scapula_upward_rot_l	scapula_winging_l	shoulder_elv_l	plane_of_elev_l	axial_rot_l	elbow_flexion_l	pro_sup_l	wrist_flex_l	wrist_dev_l	
7.2700	25.156276	36.869754	51.071911	83.921330	776.903659	-43.639526	12.989608	36.211894	28.690464	45.000000	-45.000000	-1160.777344	-4069.515695	159.098421	18.269465	1441.458126	169.145474	11.762287	11.642369	-13.907710	-45.000000	-33.781202	45.000000	-45.000000	-3502.087645	-454.187687	136.219744	-131.707833	350.314063	44.009573	11.009534	-14.640482	
7.2800	25.255572	36.778795	50.941019	83.640755	776.663635	-43.871685	13.137400	36.228908	28.774023	45.000000	-45.000000	-1160.880014	-4069.485191	159.113352	18.569558	1441.464744	169.335625	11.784056	11.637321	-13.972645	-45.000000	-33.757561	45.000000	-45.000000	-3502.023007	-454.128459	136.221289	-131.997550	350.436890	44.310091	10.927302	-14.735867	
7.2900	25.407979	36.665577	50.746130	83.286022	776.434911	-44.094256	13.364223	36.240096	28.860288	45.000000	-45.000000	-1160.940849	-4069.416917	159.157288	18.921101	1441.449734	169.508080	11.891425	11.554019	-14.039101	-45.000000	-33.682376	45.000000	-45.000000	-3502.018975	-454.074264	136.246227	-132.309207	350.552906	44.630576	10.736602	-14.827420	
7.3000	25.532250	36.556900	50.559573	82.768279	776.235982	-44.298291	13.459268	36.255718	28.907600	45.000000	-45.000000	-1161.014279	-4069.371617	159.172380	19.171960	1441.457354	169.639858	11.942479	11.532091	-14.054352	-45.000000	-33.679027	45.000000	-45.000000	-3501.988175	-454.008958	136.253299	-132.553692	350.675451	44.998632	10.593974	-14.919975	
7.3100	25.657518	36.444532	50.357818	82.080379	776.063209	-44.480365	13.496756	36.279821	28.934633	45.000000	-45.000000	-1161.102899	-4069.337892	159.161817	19.380868	1441.476694	169.727745	11.971202	11.532430	-14.048927	-45.000000	-33.708941	45.000000	-45.000000	-3501.945895	-453.941799	136.250551	-132.760207	350.801129	45.416425	10.462818	-15.008799	
7.3200	25.786126	36.327769	50.140346	81.203728	775.915551	-44.636196	13.489308	36.305260	28.946166	45.000000	-45.000000	-1161.190083	-4069.303825	159.151498	19.560126	1441.498172	169.765076	11.997079	11.547878	-14.017045	-45.000000	-33.758309	45.000000	-45.000000	-3501.909375	-453.869649	136.256741	-132.938019	350.932069	45.888486	10.319094	-15.100394	
7.3300	25.919020	36.208911	49.909543	80.141037	775.786605	-44.763709	13.449600	36.344232	28.953605	45.000000	-45.000000	-1161.299332	-4069.278863	159.127721	19.728242	1441.522632	169.751761	12.005392	11.583860	-13.981501	-45.000000	-33.829982	45.000000	-45.000000	-3501.859396	-453.800502	136.260318	-133.096937	351.068002	46.413414	10.186528	-15.187330	
7.3400	26.061586	36.088419	49.664197	78.903866	775.668554	-44.862543	13.412992	36.378516	28.958033	45.000000	-45.000000	-1161.406203	-4069.242162	159.117628	19.905035	1441.539159	169.689478	12.026450	11.622252	-13.938952	-45.000000	-33.892751	45.000000	-45.000000	-3501.819699	-453.731622	136.281601	-133.261787	351.205194	46.980054	10.029454	-15.275859	
7.3500	26.196723	35.972250	49.421165	77.501326	775.555235	-44.933596	13.361116	36.419358	28.964657	45.000000	-45.000000	-1161.538401	-4069.219258	159.102448	20.077636	1441.556749	169.583668	12.026953	11.682397	-13.900163	-45.000000	-33.968050	45.000000	-45.000000	-3501.757265	-453.665633	136.300345	-133.429169	351.343966	47.576077	9.895714	-15.355858	
7.3600	26.324288	35.861892	49.183978	75.940740	775.442329	-44.978721	13.315190	36.444865	28.966294	45.000000	-45.000000	-1161.664122	-4069.186901	159.109956	20.242447	1441.568254	169.438381	12.035347	11.746368	-13.850704	-45.000000	-34.032909	45.000000	-45.000000	-3501.695057	-453.597580	136.334948	-133.617127	351.476987	48.181867	9.750934	-15.431769	
7.3700	26.444159	35.755625	48.944962	74.227668	775.326998	-45.000267	13.269341	36.469537	28.958186	45.000000	-45.000000	-1161.798745	-4069.157384	159.112941	20.402716	1441.578913	169.262693	12.032824	11.819260	-13.800860	-45.000000	-34.099042	45.000000	-45.000000	-3501.614206	-453.530649	136.362881	-133.824409	351.601680	48.776622	9.625553	-15.492967	
7.3800	26.554035	35.655663	48.710928	72.367156	775.207745	-45.000314	13.234674	36.475602	28.931707	45.000000	-45.000000	-1161.927948	-4069.118418	159.117159	20.547926	1441.590038	169.063479	12.030817	11.896554	-13.741735	-45.000000	-34.152327	45.000000	-45.000000	-3501.526152	-453.460770	136.395540	-134.061362	351.711502	49.336570	9.503926	-15.544632	
7.3900	26.652861	35.556171	48.475240	70.363974	775.083617	-44.980218	13.199541	36.482524	28.896747	45.000000	-45.000000	-1162.065102	-4069.089631	159.111822	20.683113	1441.602449	168.853767	12.018393	11.983053	-13.682349	-45.000000	-34.209924	45.000000	-45.000000	-3501.419962	-453.390486	136.422975	-134.320536	351.810117	49.842256	9.407844	-15.581249	
7.4000	26.737416	35.460671	48.248236	68.223858	774.954368	-44.940581	13.172826	36.474762	28.850062	45.000000	-45.000000	-1162.197850	-4069.059265	159.110485	20.797086	1441.613583	168.641315	12.006464	12.074240	-13.616098	-45.000000	-34.263639	45.000000	-45.000000	-3501.305344	-453.319890	136.457732	-134.604135	351.892542	50.279340	9.322973	-15.607865	
7.4100	26.811745	35.362514	48.018048	65.954480	774.820032	-44.881928	13.148739	36.464071	28.794762	45.000000	-45.000000	-1162.327253	-4069.033475	159.108169	20.901079	1441.619049	168.436248	11.992183	12.169596	-13.546156	-45.000000	-34.322250	45.000000	-45.000000	-3501.180336	-453.249399	136.492250	-134.906526	351.962170	50.640260	9.258221	-15.622897	
7.4200	26.870843	35.265580	47.797833	63.565871	774.681604	-44.805362	13.134657	36.437153	28.730392	45.000000	-45.000000	-1162.449327	-4069.007318	159.111764	20.988004	1441.619545	168.242650	11.978266	12.265883	-13.470064	-45.000000	-34.380884	45.000000	-45.000000	-3501.047183	-453.179784	136.533992	-135.226083	352.015443	50.924469	9.207458	-15.630032	
7.4300	26.912096	35.170612	47.590096	61.070496	774.541019	-44.713218	13.143998	36.383338	28.648940	45.000000	-45.000000	-1162.547755	-4068.971041	159.133380	21.074798	1441.609391	168.060869	11.963973	12.353775	-13.380859	-45.000000	-34.435814	45.000000	-45.000000	-3500.906286	-453.101516	136.577998	-135.560536	352.051955	51.138028	9.174353	-15.628942	
7.4400	26.933156	35.082668	47.401785	58.482617	774.401961	-44.608962	13.184946	36.294137	28.543721	45.000000	-45.000000	-1162.620105	-4068.917846	159.174929	21.163703	1441.588818	167.884098	11.948329	12.431094	-13.278869	-45.000000	-34.482185	45.000000	-45.000000	-3500.757904	-453.014926	136.625303	-135.910243	352.074124	51.290930	9.154186	-15.623156	
7.4500	26.939951	35.002483	47.226541	55.817216	774.269080	-44.496441	13.249371	36.179962	28.419379	45.000000	-45.000000	-1162.672142	-4068.849142	159.235093	21.265796	1441.558517	167.705945	11.931052	12.497338	-13.164963	-45.000000	-34.519218	45.000000	-45.000000	-3500.603683	-452.922390	136.672516	-136.271635	352.086308	51.394889	9.146727	-15.616569	
7.4600	26.942350	34.926000	47.051642	53.088070	774.147608	-44.378418	13.317049	36.062523	28.289896	45.000000	-45.000000	-1162.721348	-4068.774728	159.301556	21.385438	1441.523640	167.524161	11.911541	12.561032	-13.048590	-45.000000	-34.557220	45.000000	-45.000000	-3500.445697	-452.837333	136.721271	-136.637149	352.094506	51.460623	9.147634	-15.614604	
7.4700	26.950922	34.851343	46.868384	50.306119	774.042276	-44.255758	13.368063	35.959917	28.160298	45.000000	-45.000000	-1162.782185	-4068.699144	159.361074	21.523048	1441.487582	167.343197	11.891716	12.621509	-12.935825	-45.000000	-34.587802	45.000000	-45.000000	-3500.287272	-452.760231	136.768655	-136.995882	352.097085	51.498491	9.156799	-15.618103	
7.4800	26.968728	34.774685	46.668169	47.479802	773.957293	-44.127330	13.393329	35.883787	28.039135	45.000000	-45.000000	-1162.861678	-4068.631865	159.408464	21.676107	1441.454657	167.170188	11.871634	12.684676	-12.831938	-45.000000	-34.620158	45.000000	-45.000000	-3500.130555	-452.696402	136.815723	-137.342616	352.098641	51.515625	9.170948	-15.628869	
7.4900	26.997614	34.694829	46.451141	44.614983	773.895992	-43.990782	13.386208	35.840176	27.932009	45.000000	-45.000000	-1162.960979	-4068.574842	159.444177	21.840276	1441.426908	167.014507	11.853502	12.748832	-12.739202	-45.000000	-34.651718	45.000000	-45.000000	-3499.977609	-452.644402	136.863041	-137.673525	352.095863	51.517318	9.190362	-15.645204	
7.5000	27.031434	34.610626	46.221137	41.715963	773.861281	-43.843456	13.357175	35.820514	27.839933	45.000000	-45.000000	-1163.071176	-4068.526834	159.476060	22.016198	1441.404667	166.884179	11.837875	12.814297	-12.654327	-45.000000	-34.691998	45.000000	-45.000000	-3499.828310	-452.601666	136.912379	-137.989320	352.089670	51.505491	9.213538	-15.665565	
7.5100	27.066073	34.525576	45.987785	38.785402	773.855927	-43.683370	13.320762	35.806545	27.745356	45.000000	-45.000000	-1163.184562	-4068.477252	159.502791	22.201368	1441.381988	166.784307	11.827543	12.872867	-12.571873	-45.000000	-34.726311	45.000000	-45.000000	-3499.680798	-452.556842	136.960271	-138.290023	352.075695	51.480897	9.242329	-15.686219	
7.5200	27.095811	34.440689	45.753946	35.826124	773.882985	-43.509688	13.291834	35.786514	27.646168	45.000000	-45.000000	-1163.293801	-4068.425137	159.531976	22.394571	1441.358950	166.715912	11.821440	12.926750	-12.487799	-45.000000	-34.764893	45.000000	-45.000000	-3499.533098	-452.509833	137.005788	-138.580168	352.057988	51.441612	9.275536	-15.707021	
7.5300	27.126603	34.354890	45.516439	32.840248	773.945698	-43.322558	13.263421	35.766523	27.540312	45.000000	-45.000000	-1163.411200	-4068.370940	159.549436	22.592687	1441.331575	166.680632	11.822133	12.977907	-12.404804	-45.000000	-34.804123	45.000000	-45.000000	-3499.382585	-452.466641	137.047331	-138.859372	352.039437	51.385598	9.314138	-15.729763	
7.5400	27.156571	34.268925	45.278235	29.829870	774.047363	-43.122655	13.239407	35.742973	27.430463	45.000000	-45.000000	-1163.534086	-4068.314387	159.560359	22.793006	1441.302669	166.680294	11.828694	13.026909	-12.320678	-45.000000	-34.847576	45.000000	-45.000000	-3499.229577	-452.426980	137.084498	-139.121556	352.017455	51.311638	9.358525	-15.753286	
